<svg id="Layer_1" data-name="Layer 1" xmlns="http://www.w3.org/2000/svg" viewBox="0 0 44.58 67.65"><defs><style>.cls-1{fill:#020202;stroke:#000;stroke-miterlimit:10;stroke-width:0.19px;}</style></defs><title>logo1</title><path class="cls-1" d="M52.23,16c.68,8.4,10.41,18.2,14.63,26.45a41.9,41.9,0,0,1,5.22,12.3c1.32,5.55.18,10.83-2.16,15.76-4.46,9.41-14,14.56-23.39,12.55-8.33-1.79-14-7.3-17-16.13a21.62,21.62,0,0,1-.85-11.8A41,41,0,0,1,34,43,198.25,198.25,0,0,1,46.54,24.24c1-1.22,4.66-7,5.69-8.24" transform="translate(-28.15 -15.94)"/></svg>